<?xml version="1.0" encoding="UTF-8"?>
<svg width="47px" height="62px" viewBox="0 0 47 62" version="1.1" xmlns="http://www.w3.org/2000/svg" xmlns:xlink="http://www.w3.org/1999/xlink">
    <!-- Generator: sketchtool 57.1 (101010) - https://sketch.com -->
    <title>48684533-00DA-4720-B75E-68BC3EAF9FD4</title>
    <desc>Created with sketchtool.</desc>
    <defs>
        <polygon id="path-1" points="0.0229808947 0.0392550125 44.2202062 0.0392550125 44.2202062 51.10508 0.0229808947 51.10508"></polygon>
    </defs>
    <g id="Coming-Soon-CRM" stroke="none" stroke-width="1" fill="none" fill-rule="evenodd">
        <g transform="translate(-591.000000, -921.000000)" id="Footer">
            <g transform="translate(0.000000, 819.000000)">
                <g id="Copyright" transform="translate(591.000000, 102.000000)">
                    <g id="benchmark-isotype">
                        <path d="M30.39826,49.5358635 L21.6460257,58.5698067 C20.8859239,59.3544668 20.8859239,60.6268447 21.6460257,61.4114193 C22.0262008,61.803835 22.5244814,62 23.0226792,62 C23.5208769,62 23.9914753,61.8322374 24.3716504,61.4399073 L33.1513184,52.3776473 C33.9115859,51.5929016 33.9115859,50.3206092 33.1513184,49.5358635 C32.3910509,48.7512034 31.1584446,48.7512034 30.39826,49.5358635" id="Fill-1" fill="#1D202D"></path>
                        <path d="M3.81254892,38.8565297 C3.84608317,38.7662004 4.12459917,38.0680114 5.19992536,36.6075132 C6.69740317,34.5737001 8.97310691,32.0709278 11.9579857,29.174217 L13.4151564,27.7602861 C14.0872456,27.1080232 15.0680811,26.9385855 15.9012339,27.2506906 L15.743722,27.0980044 C15.2892751,26.6569375 15.2891925,25.9418368 15.7435568,25.5006897 L16.2925769,24.9681713 C17.0501537,24.2329529 17.0501537,23.0409581 16.2925769,22.3057397 C15.534835,21.5706014 14.3064572,21.5706014 13.5488804,22.3057397 L9.21800606,26.5083389 C5.80758913,29.8177435 3.26022491,32.6638795 1.65272832,34.961948 C0.41865132,36.7261356 0.118742774,37.6409707 0.047048855,37.9523545 C-0.18645196,38.9670569 0.471926179,39.9734237 1.51768275,40.1999284 C1.66007943,40.2307862 1.80214572,40.245614 1.94222969,40.245614 C2.80222632,40.245614 3.58053484,39.687127 3.81254892,38.8565297" id="Fill-3" fill="#1D202D"></path>
                        <g id="Group-7" transform="translate(2.107595, 0.000000)">
                            <mask id="mask-2" fill="white">
                                <use xlink:href="#path-1"></use>
                            </mask>
                            <g id="Clip-6"></g>
                            <path d="M43.6595289,0.610187218 L43.6595289,0.610187218 C42.9118451,-0.151094452 41.6996403,-0.151094452 40.9519564,0.610187218 L13.8792474,28.1753392 C14.7764191,29.0887444 14.7764191,30.569812 13.8792474,31.4833832 L13.2803993,32.0931222 C13.2802363,32.0932052 13.2801548,32.0933712 13.2799918,32.0934542 L9.00564953,36.4455321 C1.08205904,44.5133086 0.156603619,48.1797102 0.0493375166,48.8350116 C-0.124521599,49.8969717 0.580043895,50.9013357 1.62303557,51.0781907 C1.72956809,51.0962829 1.83544854,51.10508 1.94010635,51.10508 C2.83532185,51.10508 3.62832482,50.4636382 3.81286164,49.5489051 C3.838211,49.4578633 4.07735899,48.663551 5.1047009,47.0757563 C6.09511914,45.5449768 8.03650519,42.9457638 11.713059,39.2022631 L13.166531,37.7225234 C13.8141216,37.0633214 14.7519664,36.880159 15.5610267,37.1727042 L15.4460172,37.0556031 C14.9974721,36.5989005 14.9973906,35.8584497 15.4458542,35.4016641 L15.9874828,34.8501852 C16.7351666,34.0889035 16.7351666,32.8546529 15.9874828,32.0934542 C15.8947253,31.9990098 15.7948765,31.9164332 15.6896482,31.8453924 L43.6595289,3.36691819 C44.4071313,2.60563652 44.4071313,1.37146889 43.6595289,0.610187218" id="Fill-5" fill="#1D202D" mask="url(#mask-2)"></path>
                        </g>
                        <path d="M41.5950245,16.885347 C40.8467455,16.125937 39.6335757,16.125937 38.8853782,16.885347 L18.6953846,37.375593 C19.5932706,38.2869181 19.5932706,39.7642617 18.6953846,40.6755041 L18.0786846,41.3014606 L18.0777872,41.3023713 L13.799716,45.6440807 C10.3527215,49.142268 7.88167938,52.5425176 6.4551118,55.7505346 C5.34342019,58.2504698 5.27212444,59.757948 5.26898734,60.0349551 C5.2574411,61.1087922 6.10589315,62 7.16399059,62 L7.18544457,62 C8.23383469,62 9.08938368,61.1441425 9.1009672,60.0776734 C9.1009672,60.0691463 9.17250768,59.0936608 9.94795091,57.349907 C11.4867644,53.8894708 14.3267662,50.5696907 16.4706146,48.3938687 L17.8921246,46.9144555 L17.8921246,46.927122 L17.9700279,46.927122 C18.6218048,46.2660635 19.5556649,46.1042967 20.3594959,46.4012555 L20.3723846,46.3845325 L20.1763621,46.2539765 C19.7275415,45.7984795 19.7160396,45.0614221 20.106861,44.6057595 L20.106861,44.6041037 L20.7182588,44.0530699 C21.4664562,43.2936599 21.5011252,42.0621125 20.7528462,41.3027024 C20.6600149,41.208573 20.5774619,41.1259511 20.4720682,41.0550849 L41.5863777,19.6353833 C42.3345752,18.8759733 42.3433036,17.6447571 41.5950245,16.885347" id="Fill-8" fill="#1D202D"></path>
                        <path d="M34.7598925,33.2007789 L21.8391054,46.693377 L21.8391054,46.6934597 C22.7112558,47.6041301 22.7112558,49.0806289 21.8391054,49.9912992 L20.0221519,51.8886739 C20.7446391,52.3885621 21.727789,52.3061575 22.3643129,51.6413773 L37.3916347,35.9490061 C38.1184002,35.1900728 38.1184002,33.9597122 37.3916347,33.2007789 C36.6648691,32.4418456 35.4865788,32.4418456 34.7598925,33.2007789" id="Fill-10" fill="#1D202D"></path>
                    </g>
                </g>
            </g>
        </g>
    </g>
</svg>